<svg width="45" height="38" viewBox="0 0 45 38" fill="none" xmlns="http://www.w3.org/2000/svg">
<path d="M41.0076 2C42.2664 2 43.2159 3.10417 42.708 5.15792L36.5468 34.1975C36.1162 36.2623 34.8684 36.7592 33.1459 35.7985L18.4495 24.9446C18.3925 24.9037 18.3461 24.8498 18.314 24.7874C18.282 24.725 18.2653 24.6559 18.2653 24.5857C18.2653 24.5156 18.282 24.4464 18.314 24.384C18.3461 24.3216 18.3925 24.2678 18.4495 24.2269L35.4205 8.90104C36.1934 8.21646 35.2549 7.88521 34.2391 8.50354L12.9397 21.9413C12.8751 21.9834 12.8018 22.0102 12.7252 22.0198C12.6487 22.0294 12.571 22.0214 12.498 21.9965L3.4549 19.1367C1.44532 18.5515 1.44532 17.1712 3.90761 16.1885L40.0912 2.23188C40.3781 2.09421 40.6897 2.01537 41.0076 2Z" stroke="black" stroke-width="2.752" stroke-linecap="round" stroke-linejoin="round"/>
</svg>
